<?xml version="1.0" encoding="UTF-8" standalone="no"?>
<svg
   xmlns:dc="http://purl.org/dc/elements/1.1/"
   xmlns:cc="http://creativecommons.org/ns#"
   xmlns:rdf="http://www.w3.org/1999/02/22-rdf-syntax-ns#"
   xmlns:svg="http://www.w3.org/2000/svg"
   xmlns="http://www.w3.org/2000/svg"
   id="svg7347"
   version="1.1"
   viewBox="0 0 141.74623 10.202333"
   height="10.202333mm"
   width="141.74623mm">
  <defs
     id="defs7341" />
  <metadata
     id="metadata7344">
    <rdf:RDF>
      <cc:Work
         rdf:about="">
        <dc:format>image/svg+xml</dc:format>
        <dc:type
           rdf:resource="http://purl.org/dc/dcmitype/StillImage" />
        <dc:title></dc:title>
      </cc:Work>
    </rdf:RDF>
  </metadata>
  <g
     transform="translate(-11.366496,-71.073047)"
     id="layer1">
    <g
       id="text7351"
       style="font-style:normal;font-variant:normal;font-weight:normal;font-stretch:normal;font-size:10.58333302px;line-height:1.25;font-family:EPF;-inkscape-font-specification:EPF;letter-spacing:0px;word-spacing:0px;fill:#000000;fill-opacity:1;stroke:none;stroke-width:0.26458332"
       aria-label="the right software.  right now.">
      <path
         id="path7353"
         style="font-style:normal;font-variant:normal;font-weight:normal;font-stretch:normal;font-family:Ubuntu;-inkscape-font-specification:Ubuntu;stroke-width:0.26458332"
         d="m 12.35075,73.78238 h 2.084916 v 0.8255 H 12.35075 v 2.54 q 0,0.41275 0.0635,0.687917 0.0635,0.264583 0.1905,0.423333 0.127,0.148167 0.3175,0.211667 0.1905,0.0635 0.4445,0.0635 0.4445,0 0.709083,-0.09525 0.275167,-0.105834 0.381,-0.148167 l 0.1905,0.814917 q -0.148167,0.07408 -0.518583,0.179916 -0.370417,0.116417 -0.846667,0.116417 -0.560917,0 -0.931333,-0.137583 -0.359834,-0.148167 -0.582084,-0.433917 -0.22225,-0.28575 -0.3175,-0.6985 -0.08467,-0.423333 -0.08467,-0.973667 v -4.910666 l 0.98425,-0.169334 z" />
      <path
         id="path7355"
         style="font-style:normal;font-variant:normal;font-weight:normal;font-stretch:normal;font-family:Ubuntu;-inkscape-font-specification:Ubuntu;stroke-width:0.26458332"
         d="M 15.688137,79.285713 V 71.24238 l 0.98425,-0.169333 v 2.815166 q 0.275167,-0.105833 0.582084,-0.15875 0.3175,-0.0635 0.624416,-0.0635 0.656167,0 1.090084,0.1905 0.433916,0.179917 0.687916,0.518584 0.264584,0.328083 0.370417,0.79375 0.105833,0.465666 0.105833,1.026583 v 3.090333 h -0.98425 v -2.878666 q 0,-0.508 -0.07408,-0.867834 -0.0635,-0.359833 -0.22225,-0.582083 -0.15875,-0.22225 -0.423333,-0.3175 -0.264584,-0.105833 -0.656167,-0.105833 -0.15875,0 -0.328083,0.02117 -0.169334,0.02117 -0.328084,0.05292 -0.148166,0.02117 -0.275166,0.05292 -0.116417,0.03175 -0.169334,0.05292 v 4.572 z" />
      <path
         id="path7357"
         style="font-style:normal;font-variant:normal;font-weight:normal;font-stretch:normal;font-family:Ubuntu;-inkscape-font-specification:Ubuntu;stroke-width:0.26458332"
         d="m 21.417028,76.54463 q 0,-0.73025 0.211667,-1.27 0.211667,-0.550333 0.560917,-0.910167 0.34925,-0.359833 0.804333,-0.53975 0.455083,-0.179916 0.931333,-0.179916 1.11125,0 1.703917,0.6985 0.592667,0.687916 0.592667,2.106083 0,0.0635 0,0.169333 0,0.09525 -0.01058,0.179917 h -3.767666 q 0.0635,0.85725 0.497416,1.30175 0.433917,0.4445 1.354667,0.4445 0.518583,0 0.867833,-0.08467 0.359834,-0.09525 0.53975,-0.179916 l 0.137584,0.8255 q -0.179917,0.09525 -0.635,0.201083 -0.4445,0.105833 -1.016,0.105833 -0.719667,0 -1.248834,-0.211666 -0.518583,-0.22225 -0.85725,-0.60325 -0.338666,-0.381 -0.508,-0.899584 -0.15875,-0.529166 -0.15875,-1.153583 z m 3.77825,-0.53975 q 0.01058,-0.66675 -0.338666,-1.090083 -0.338667,-0.433917 -0.941917,-0.433917 -0.338667,0 -0.60325,0.137583 -0.254,0.127 -0.433917,0.338667 -0.179916,0.211667 -0.28575,0.486833 -0.09525,0.275167 -0.127,0.560917 z" />
      <path
         id="path7359"
         style="font-style:normal;font-variant:normal;font-weight:normal;font-stretch:normal;font-family:Ubuntu;-inkscape-font-specification:Ubuntu;stroke-width:0.26458332"
         d="m 32.106855,73.665963 q 0.127,0 0.28575,0.02117 0.169333,0.01058 0.328083,0.04233 0.15875,0.02117 0.28575,0.05292 0.137584,0.02117 0.201084,0.04233 l -0.169334,0.85725 q -0.116416,-0.04233 -0.391583,-0.09525 -0.264583,-0.0635 -0.687917,-0.0635 -0.275166,0 -0.550333,0.0635 -0.264583,0.05292 -0.34925,0.07408 v 4.624916 h -0.98425 v -5.2705 q 0.34925,-0.127 0.867833,-0.232833 0.518584,-0.116417 1.164167,-0.116417 z" />
      <path
         id="path7361"
         style="font-style:normal;font-variant:normal;font-weight:normal;font-stretch:normal;font-family:Ubuntu;-inkscape-font-specification:Ubuntu;stroke-width:0.26458332"
         d="m 35.151879,79.285713 h -0.98425 V 73.78238 h 0.98425 z m -0.497417,-6.498166 q -0.264583,0 -0.455083,-0.169334 -0.179917,-0.179916 -0.179917,-0.47625 0,-0.296333 0.179917,-0.465666 0.1905,-0.179917 0.455083,-0.179917 0.264583,0 0.4445,0.179917 0.1905,0.169333 0.1905,0.465666 0,0.296334 -0.1905,0.47625 -0.179917,0.169334 -0.4445,0.169334 z" />
      <path
         id="path7363"
         style="font-style:normal;font-variant:normal;font-weight:normal;font-stretch:normal;font-family:Ubuntu;-inkscape-font-specification:Ubuntu;stroke-width:0.26458332"
         d="m 40.304971,78.73538 q -0.127,0.08467 -0.497417,0.22225 -0.359833,0.127 -0.846666,0.127 -0.497417,0 -0.941917,-0.15875 -0.433917,-0.15875 -0.762,-0.486833 -0.328083,-0.338667 -0.518583,-0.836084 -0.1905,-0.497416 -0.1905,-1.185333 0,-0.60325 0.179916,-1.100667 0.179917,-0.508 0.518584,-0.867833 0.34925,-0.370417 0.846666,-0.5715 0.497417,-0.211667 1.121834,-0.211667 0.687916,0 1.195916,0.105834 0.518584,0.09525 0.867834,0.179916 v 4.910667 q 0,1.27 -0.656167,1.8415 -0.656167,0.5715 -1.989667,0.5715 -0.518583,0 -0.98425,-0.08467 -0.455083,-0.08467 -0.79375,-0.201083 l 0.179917,-0.85725 q 0.296333,0.116417 0.719667,0.201083 0.433916,0.09525 0.899583,0.09525 0.878417,0 1.259417,-0.34925 0.391583,-0.34925 0.391583,-1.11125 z m -0.01058,-4.085167 q -0.148167,-0.04233 -0.402167,-0.07408 -0.243417,-0.04233 -0.66675,-0.04233 -0.79375,0 -1.227667,0.518583 -0.423333,0.518583 -0.423333,1.375833 0,0.47625 0.116417,0.814917 0.127,0.338667 0.328083,0.560917 0.211667,0.22225 0.47625,0.328083 0.275167,0.105833 0.560917,0.105833 0.391583,0 0.719666,-0.105833 0.328084,-0.116417 0.518584,-0.264583 z" />
      <path
         id="path7365"
         style="font-style:normal;font-variant:normal;font-weight:normal;font-stretch:normal;font-family:Ubuntu;-inkscape-font-specification:Ubuntu;stroke-width:0.26458332"
         d="M 42.973293,79.285713 V 71.24238 l 0.98425,-0.169333 v 2.815166 q 0.275166,-0.105833 0.582083,-0.15875 0.3175,-0.0635 0.624417,-0.0635 0.656166,0 1.090083,0.1905 0.433917,0.179917 0.687917,0.518584 0.264583,0.328083 0.370416,0.79375 0.105834,0.465666 0.105834,1.026583 v 3.090333 h -0.98425 v -2.878666 q 0,-0.508 -0.07408,-0.867834 -0.0635,-0.359833 -0.22225,-0.582083 -0.15875,-0.22225 -0.423333,-0.3175 -0.264583,-0.105833 -0.656167,-0.105833 -0.15875,0 -0.328083,0.02117 -0.169333,0.02117 -0.328083,0.05292 -0.148167,0.02117 -0.275167,0.05292 -0.116417,0.03175 -0.169333,0.05292 v 4.572 z" />
      <path
         id="path7367"
         style="font-style:normal;font-variant:normal;font-weight:normal;font-stretch:normal;font-family:Ubuntu;-inkscape-font-specification:Ubuntu;stroke-width:0.26458332"
         d="m 49.929851,73.78238 h 2.084917 v 0.8255 h -2.084917 v 2.54 q 0,0.41275 0.0635,0.687917 0.0635,0.264583 0.1905,0.423333 0.127,0.148167 0.3175,0.211667 0.1905,0.0635 0.4445,0.0635 0.4445,0 0.709083,-0.09525 0.275167,-0.105834 0.381,-0.148167 l 0.1905,0.814917 q -0.148166,0.07408 -0.518583,0.179916 -0.370417,0.116417 -0.846667,0.116417 -0.560916,0 -0.931333,-0.137583 -0.359833,-0.148167 -0.582083,-0.433917 -0.22225,-0.28575 -0.3175,-0.6985 -0.08467,-0.423333 -0.08467,-0.973667 v -4.910666 l 0.98425,-0.169334 z" />
      <path
         id="path7369"
         style="font-style:normal;font-variant:normal;font-weight:normal;font-stretch:normal;font-family:Ubuntu;-inkscape-font-specification:Ubuntu;stroke-width:0.26458332"
         d="m 56.98695,78.57663 q 0.60325,0 0.889,-0.15875 0.296333,-0.15875 0.296333,-0.508 0,-0.359833 -0.28575,-0.5715 -0.28575,-0.211667 -0.941916,-0.47625 -0.3175,-0.127 -0.613834,-0.254 -0.285749,-0.137583 -0.497416,-0.3175 -0.211667,-0.179917 -0.338667,-0.433917 -0.127,-0.254 -0.127,-0.624416 0,-0.73025 0.53975,-1.153584 0.53975,-0.433916 1.471083,-0.433916 0.232834,0 0.465667,0.03175 0.232833,0.02117 0.433917,0.0635 0.201083,0.03175 0.34925,0.07408 0.15875,0.04233 0.243416,0.07408 l -0.179916,0.846667 q -0.15875,-0.08467 -0.497417,-0.169333 -0.338667,-0.09525 -0.814917,-0.09525 -0.41275,0 -0.719666,0.169333 -0.306917,0.15875 -0.306917,0.508 0,0.179917 0.0635,0.3175 0.07408,0.137583 0.211667,0.254 0.148166,0.105833 0.359833,0.201083 0.211667,0.09525 0.508,0.201084 0.391583,0.148166 0.6985,0.296333 0.306917,0.137583 0.518583,0.328083 0.22225,0.1905 0.338667,0.465667 0.116417,0.264583 0.116417,0.656167 0,0.762 -0.5715,1.153583 -0.560917,0.391583 -1.608667,0.391583 -0.73025,0 -1.143,-0.127 -0.41275,-0.116416 -0.560916,-0.179916 L 55.46295,78.25913 q 0.169334,0.0635 0.53975,0.1905 0.370417,0.127 0.98425,0.127 z" />
      <path
         id="path7371"
         style="font-style:normal;font-variant:normal;font-weight:normal;font-stretch:normal;font-family:Ubuntu;-inkscape-font-specification:Ubuntu;stroke-width:0.26458332"
         d="m 65.277007,76.534047 q 0,0.656166 -0.1905,1.185333 -0.1905,0.529167 -0.53975,0.910167 -0.338666,0.381 -0.814916,0.592666 -0.47625,0.201084 -1.037167,0.201084 -0.560917,0 -1.037167,-0.201084 -0.47625,-0.211666 -0.8255,-0.592666 -0.338666,-0.381 -0.529166,-0.910167 -0.1905,-0.529167 -0.1905,-1.185333 0,-0.645584 0.1905,-1.17475 0.1905,-0.53975 0.529166,-0.92075 0.34925,-0.381 0.8255,-0.582084 0.47625,-0.211666 1.037167,-0.211666 0.560917,0 1.037167,0.211666 0.47625,0.201084 0.814916,0.582084 0.34925,0.381 0.53975,0.92075 0.1905,0.529166 0.1905,1.17475 z m -1.026583,0 q 0,-0.931334 -0.423333,-1.471084 -0.41275,-0.550333 -1.132417,-0.550333 -0.719667,0 -1.143,0.550333 -0.41275,0.53975 -0.41275,1.471084 0,0.931333 0.41275,1.481666 0.423333,0.53975 1.143,0.53975 0.719667,0 1.132417,-0.53975 0.423333,-0.550333 0.423333,-1.481666 z" />
      <path
         id="path7373"
         style="font-style:normal;font-variant:normal;font-weight:normal;font-stretch:normal;font-family:Ubuntu;-inkscape-font-specification:Ubuntu;stroke-width:0.26458332"
         d="m 68.810186,71.073047 q 0.433916,0 0.740833,0.0635 0.3175,0.0635 0.4445,0.116416 l -0.179917,0.846667 q -0.127,-0.0635 -0.359833,-0.116417 -0.232833,-0.0635 -0.5715,-0.0635 -0.687916,0 -0.963083,0.381 -0.275167,0.370417 -0.275167,1.005417 v 0.47625 h 2.116667 v 0.8255 h -2.116667 v 4.677833 h -0.98425 v -6.00075 q 0,-1.058333 0.518584,-1.629833 0.518583,-0.582083 1.629833,-0.582083 z" />
      <path
         id="path7375"
         style="font-style:normal;font-variant:normal;font-weight:normal;font-stretch:normal;font-family:Ubuntu;-inkscape-font-specification:Ubuntu;stroke-width:0.26458332"
         d="m 71.675293,73.78238 h 2.084916 v 0.8255 h -2.084916 v 2.54 q 0,0.41275 0.0635,0.687917 0.0635,0.264583 0.1905,0.423333 0.127,0.148167 0.3175,0.211667 0.1905,0.0635 0.4445,0.0635 0.4445,0 0.709083,-0.09525 0.275167,-0.105834 0.381,-0.148167 l 0.1905,0.814917 q -0.148167,0.07408 -0.518583,0.179916 -0.370417,0.116417 -0.846667,0.116417 -0.560917,0 -0.931333,-0.137583 -0.359834,-0.148167 -0.582084,-0.433917 -0.22225,-0.28575 -0.3175,-0.6985 -0.08467,-0.423333 -0.08467,-0.973667 v -4.910666 l 0.98425,-0.169334 z" />
      <path
         id="path7377"
         style="font-style:normal;font-variant:normal;font-weight:normal;font-stretch:normal;font-family:Ubuntu;-inkscape-font-specification:Ubuntu;stroke-width:0.26458332"
         d="m 79.510596,79.285713 q -0.296333,-0.762 -0.635,-1.735666 -0.328083,-0.98425 -0.60325,-2.042584 -0.275167,1.058334 -0.60325,2.042584 -0.328083,0.973666 -0.624417,1.735666 h -0.85725 q -0.486833,-1.090083 -0.9525,-2.487083 -0.465666,-1.397 -0.878416,-3.01625 h 1.058333 q 0.105833,0.497417 0.254,1.0795 0.148167,0.582083 0.306917,1.164167 0.169333,0.582083 0.34925,1.121833 0.179916,0.53975 0.338666,0.941917 0.179917,-0.497417 0.34925,-1.04775 0.179917,-0.560917 0.338667,-1.121834 0.15875,-0.5715 0.296333,-1.11125 0.148167,-0.550333 0.254,-1.026583 h 0.814917 q 0.09525,0.47625 0.232833,1.026583 0.137584,0.53975 0.296334,1.11125 0.15875,0.560917 0.328083,1.121834 0.179917,0.550333 0.359833,1.04775 0.15875,-0.402167 0.328084,-0.941917 0.179916,-0.53975 0.34925,-1.121833 0.169333,-0.582084 0.3175,-1.164167 0.148166,-0.582083 0.254,-1.0795 h 1.016 q -0.41275,1.61925 -0.878417,3.01625 -0.465667,1.397 -0.9525,2.487083 z" />
      <path
         id="path7379"
         style="font-style:normal;font-variant:normal;font-weight:normal;font-stretch:normal;font-family:Ubuntu;-inkscape-font-specification:Ubuntu;stroke-width:0.26458332"
         d="m 85.102237,78.57663 q 0.34925,0 0.613833,-0.01058 0.275167,-0.02117 0.455083,-0.0635 v -1.64042 q -0.105833,-0.05292 -0.34925,-0.08467 -0.232833,-0.04233 -0.5715,-0.04233 -0.22225,0 -0.47625,0.03175 -0.243416,0.03175 -0.455083,0.137583 -0.201083,0.09525 -0.338667,0.275167 -0.137583,0.169333 -0.137583,0.455083 0,0.529167 0.338667,0.740834 0.338666,0.201083 0.92075,0.201083 z m -0.08467,-4.931833 q 0.592667,0 0.994833,0.15875 0.41275,0.148166 0.656167,0.433916 0.254,0.275167 0.359833,0.66675 0.105834,0.381 0.105834,0.846667 v 3.439583 q -0.127,0.02117 -0.359834,0.0635 -0.22225,0.03175 -0.508,0.0635 -0.28575,0.03175 -0.624416,0.05292 -0.328084,0.03175 -0.656167,0.03175 -0.465667,0 -0.85725,-0.09525 -0.391583,-0.09525 -0.677333,-0.296333 -0.28575,-0.211667 -0.4445,-0.550334 -0.15875,-0.338666 -0.15875,-0.814916 0,-0.455084 0.179916,-0.783167 0.1905,-0.328083 0.508,-0.529167 0.3175,-0.201083 0.740834,-0.296333 0.423333,-0.09525 0.889,-0.09525 0.148166,0 0.306916,0.02117 0.15875,0.01058 0.296334,0.04233 0.148166,0.02117 0.254,0.04233 0.105833,0.02117 0.148166,0.03175 v -0.275166 q 0,-0.243417 -0.05292,-0.47625 -0.05292,-0.243417 -0.1905,-0.423334 -0.137584,-0.1905 -0.381,-0.296333 -0.232834,-0.116417 -0.613834,-0.116417 -0.486833,0 -0.85725,0.07408 -0.359833,0.0635 -0.53975,0.137583 L 83.41948,73.888209 q 0.1905,-0.08467 0.635,-0.15875 0.4445,-0.08467 0.963083,-0.08467 z" />
      <path
         id="path7381"
         style="font-style:normal;font-variant:normal;font-weight:normal;font-stretch:normal;font-family:Ubuntu;-inkscape-font-specification:Ubuntu;stroke-width:0.26458332"
         d="m 90.790613,73.665963 q 0.127,0 0.28575,0.02117 0.169333,0.01058 0.328083,0.04233 0.15875,0.02117 0.28575,0.05292 0.137584,0.02117 0.201084,0.04233 l -0.169334,0.85725 q -0.116416,-0.04233 -0.391583,-0.09525 -0.264583,-0.0635 -0.687917,-0.0635 -0.275166,0 -0.550333,0.0635 -0.264583,0.05292 -0.34925,0.07408 v 4.624916 h -0.98425 v -5.2705 q 0.34925,-0.127 0.867833,-0.232833 0.518584,-0.116417 1.164167,-0.116417 z" />
      <path
         id="path7383"
         style="font-style:normal;font-variant:normal;font-weight:normal;font-stretch:normal;font-family:Ubuntu;-inkscape-font-specification:Ubuntu;stroke-width:0.26458332"
         d="m 92.54447,76.54463 q 0,-0.73025 0.211666,-1.27 0.211667,-0.550333 0.560917,-0.910167 0.34925,-0.359833 0.804333,-0.53975 0.455084,-0.179916 0.931334,-0.179916 1.11125,0 1.703916,0.6985 0.592667,0.687916 0.592667,2.106083 0,0.0635 0,0.169333 0,0.09525 -0.01058,0.179917 h -3.767667 q 0.0635,0.85725 0.497417,1.30175 0.433916,0.4445 1.354666,0.4445 0.518584,0 0.867834,-0.08467 0.359833,-0.09525 0.53975,-0.179916 l 0.137583,0.8255 q -0.179917,0.09525 -0.635,0.201083 -0.4445,0.105833 -1.016,0.105833 -0.719667,0 -1.248833,-0.211666 -0.518584,-0.22225 -0.85725,-0.60325 -0.338667,-0.381 -0.508,-0.899584 -0.15875,-0.529166 -0.15875,-1.153583 z m 3.77825,-0.53975 q 0.01058,-0.66675 -0.338667,-1.090083 -0.338667,-0.433917 -0.941917,-0.433917 -0.338666,0 -0.60325,0.137583 -0.254,0.127 -0.433916,0.338667 -0.179917,0.211667 -0.28575,0.486833 -0.09525,0.275167 -0.127,0.560917 z" />
      <path
         id="path7385"
         style="font-style:normal;font-variant:normal;font-weight:normal;font-stretch:normal;font-family:Ubuntu;-inkscape-font-specification:Ubuntu;stroke-width:0.26458332"
         d="m 99.927334,78.714213 q 0,0.28575 -0.1905,0.497417 -0.1905,0.211667 -0.518583,0.211667 -0.328083,0 -0.518583,-0.211667 -0.1905,-0.211667 -0.1905,-0.497417 0,-0.28575 0.1905,-0.497416 0.1905,-0.211667 0.518583,-0.211667 0.328083,0 0.518583,0.211667 0.1905,0.211666 0.1905,0.497416 z" />
      <path
         id="path7387"
         style="font-style:normal;font-variant:normal;font-weight:normal;font-stretch:normal;font-family:Ubuntu;-inkscape-font-specification:Ubuntu;stroke-width:0.26458332"
         d="m 108.27792,73.665963 q 0.127,0 0.28575,0.02117 0.16933,0.01058 0.32808,0.04233 0.15875,0.02117 0.28575,0.05292 0.13758,0.02117 0.20108,0.04233 l -0.16933,0.85725 q -0.11642,-0.04233 -0.39158,-0.09525 -0.26459,-0.0635 -0.68792,-0.0635 -0.27517,0 -0.55033,0.0635 -0.26459,0.05292 -0.34925,0.07408 v 4.624916 h -0.98425 v -5.2705 q 0.34925,-0.127 0.86783,-0.232833 0.51858,-0.116417 1.16417,-0.116417 z" />
      <path
         id="path7389"
         style="font-style:normal;font-variant:normal;font-weight:normal;font-stretch:normal;font-family:Ubuntu;-inkscape-font-specification:Ubuntu;stroke-width:0.26458332"
         d="m 111.32294,79.285713 h -0.98425 V 73.78238 h 0.98425 z m -0.49742,-6.498166 q -0.26458,0 -0.45508,-0.169334 -0.17992,-0.179916 -0.17992,-0.47625 0,-0.296333 0.17992,-0.465666 0.1905,-0.179917 0.45508,-0.179917 0.26459,0 0.4445,0.179917 0.1905,0.169333 0.1905,0.465666 0,0.296334 -0.1905,0.47625 -0.17991,0.169334 -0.4445,0.169334 z" />
      <path
         id="path7391"
         style="font-style:normal;font-variant:normal;font-weight:normal;font-stretch:normal;font-family:Ubuntu;-inkscape-font-specification:Ubuntu;stroke-width:0.26458332"
         d="m 116.47603,78.73538 q -0.127,0.08467 -0.49742,0.22225 -0.35983,0.127 -0.84666,0.127 -0.49742,0 -0.94192,-0.15875 -0.43392,-0.15875 -0.762,-0.486833 -0.32808,-0.338667 -0.51858,-0.836084 -0.1905,-0.497416 -0.1905,-1.185333 0,-0.60325 0.17991,-1.100667 0.17992,-0.508 0.51859,-0.867833 0.34925,-0.370417 0.84666,-0.5715 0.49742,-0.211667 1.12184,-0.211667 0.68791,0 1.19591,0.105834 0.51859,0.09525 0.86784,0.179916 v 4.910667 q 0,1.27 -0.65617,1.8415 -0.65617,0.5715 -1.98967,0.5715 -0.51858,0 -0.98425,-0.08467 -0.45508,-0.08467 -0.79375,-0.201083 l 0.17992,-0.85725 q 0.29633,0.116417 0.71967,0.201083 0.43391,0.09525 0.89958,0.09525 0.87842,0 1.25942,-0.34925 0.39158,-0.34925 0.39158,-1.11125 z m -0.0106,-4.085167 q -0.14817,-0.04233 -0.40217,-0.07408 -0.24342,-0.04233 -0.66675,-0.04233 -0.79375,0 -1.22767,0.518583 -0.42333,0.518583 -0.42333,1.375833 0,0.47625 0.11642,0.814917 0.127,0.338667 0.32808,0.560917 0.21167,0.22225 0.47625,0.328083 0.27517,0.105833 0.56092,0.105833 0.39158,0 0.71966,-0.105833 0.32809,-0.116417 0.51859,-0.264583 z" />
      <path
         id="path7393"
         style="font-style:normal;font-variant:normal;font-weight:normal;font-stretch:normal;font-family:Ubuntu;-inkscape-font-specification:Ubuntu;stroke-width:0.26458332"
         d="M 119.14436,79.285713 V 71.24238 l 0.98425,-0.169333 v 2.815166 q 0.27516,-0.105833 0.58208,-0.15875 0.3175,-0.0635 0.62442,-0.0635 0.65616,0 1.09008,0.1905 0.43392,0.179917 0.68792,0.518584 0.26458,0.328083 0.37041,0.79375 0.10583,0.465666 0.10583,1.026583 v 3.090333 h -0.98424 v -2.878666 q 0,-0.508 -0.0741,-0.867834 -0.0635,-0.359833 -0.22225,-0.582083 -0.15875,-0.22225 -0.42333,-0.3175 -0.26458,-0.105833 -0.65617,-0.105833 -0.15875,0 -0.32808,0.02117 -0.16933,0.02117 -0.32808,0.05292 -0.14817,0.02117 -0.27517,0.05292 -0.11642,0.03175 -0.16933,0.05292 v 4.572 z" />
      <path
         id="path7395"
         style="font-style:normal;font-variant:normal;font-weight:normal;font-stretch:normal;font-family:Ubuntu;-inkscape-font-specification:Ubuntu;stroke-width:0.26458332"
         d="m 126.10091,73.78238 h 2.08492 v 0.8255 h -2.08492 v 2.54 q 0,0.41275 0.0635,0.687917 0.0635,0.264583 0.1905,0.423333 0.127,0.148167 0.3175,0.211667 0.1905,0.0635 0.4445,0.0635 0.4445,0 0.70908,-0.09525 0.27517,-0.105834 0.381,-0.148167 l 0.1905,0.814917 q -0.14816,0.07408 -0.51858,0.179916 -0.37042,0.116417 -0.84667,0.116417 -0.56091,0 -0.93133,-0.137583 -0.35983,-0.148167 -0.58208,-0.433917 -0.22225,-0.28575 -0.3175,-0.6985 -0.0847,-0.423333 -0.0847,-0.973667 v -4.910666 l 0.98425,-0.169334 z" />
      <path
         id="path7397"
         style="font-style:normal;font-variant:normal;font-weight:normal;font-stretch:normal;font-family:Ubuntu;-inkscape-font-specification:Ubuntu;stroke-width:0.26458332"
         d="m 131.87743,73.94113 q 0.33866,-0.08467 0.89958,-0.179917 0.56092,-0.09525 1.29117,-0.09525 0.65616,0 1.09008,0.1905 0.43392,0.179917 0.68792,0.518584 0.26458,0.328083 0.37041,0.79375 0.10584,0.465666 0.10584,1.026583 v 3.090333 h -0.98425 v -2.878666 q 0,-0.508 -0.0741,-0.867834 -0.0635,-0.359833 -0.22225,-0.582083 -0.15875,-0.22225 -0.42333,-0.3175 -0.26458,-0.105833 -0.65617,-0.105833 -0.15875,0 -0.32808,0.01058 -0.16933,0.01058 -0.32808,0.03175 -0.14817,0.01058 -0.27517,0.03175 -0.11642,0.02117 -0.16933,0.03175 v 4.646083 h -0.98425 z" />
      <path
         id="path7399"
         style="font-style:normal;font-variant:normal;font-weight:normal;font-stretch:normal;font-family:Ubuntu;-inkscape-font-specification:Ubuntu;stroke-width:0.26458332"
         d="m 142.81232,76.534047 q 0,0.656166 -0.1905,1.185333 -0.1905,0.529167 -0.53975,0.910167 -0.33866,0.381 -0.81491,0.592666 -0.47625,0.201084 -1.03717,0.201084 -0.56092,0 -1.03717,-0.201084 -0.47625,-0.211666 -0.8255,-0.592666 -0.33866,-0.381 -0.52916,-0.910167 -0.1905,-0.529167 -0.1905,-1.185333 0,-0.645584 0.1905,-1.17475 0.1905,-0.53975 0.52916,-0.92075 0.34925,-0.381 0.8255,-0.582084 0.47625,-0.211666 1.03717,-0.211666 0.56092,0 1.03717,0.211666 0.47625,0.201084 0.81491,0.582084 0.34925,0.381 0.53975,0.92075 0.1905,0.529166 0.1905,1.17475 z m -1.02658,0 q 0,-0.931334 -0.42333,-1.471084 -0.41275,-0.550333 -1.13242,-0.550333 -0.71967,0 -1.143,0.550333 -0.41275,0.53975 -0.41275,1.471084 0,0.931333 0.41275,1.481666 0.42333,0.53975 1.143,0.53975 0.71967,0 1.13242,-0.53975 0.42333,-0.550333 0.42333,-1.481666 z" />
      <path
         id="path7401"
         style="font-style:normal;font-variant:normal;font-weight:normal;font-stretch:normal;font-family:Ubuntu;-inkscape-font-specification:Ubuntu;stroke-width:0.26458332"
         d="m 148.55031,79.285713 q -0.29634,-0.762 -0.635,-1.735666 -0.32809,-0.98425 -0.60325,-2.042584 -0.27517,1.058334 -0.60325,2.042584 -0.32809,0.973666 -0.62442,1.735666 h -0.85725 q -0.48683,-1.090083 -0.9525,-2.487083 -0.46567,-1.397 -0.87842,-3.01625 h 1.05834 q 0.10583,0.497417 0.254,1.0795 0.14816,0.582083 0.30691,1.164167 0.16934,0.582083 0.34925,1.121833 0.17992,0.53975 0.33867,0.941917 0.17992,-0.497417 0.34925,-1.04775 0.17992,-0.560917 0.33867,-1.121834 0.15875,-0.5715 0.29633,-1.11125 0.14817,-0.550333 0.254,-1.026583 h 0.81492 q 0.0952,0.47625 0.23283,1.026583 0.13758,0.53975 0.29633,1.11125 0.15875,0.560917 0.32809,1.121834 0.17991,0.550333 0.35983,1.04775 0.15875,-0.402167 0.32808,-0.941917 0.17992,-0.53975 0.34925,-1.121833 0.16934,-0.582084 0.3175,-1.164167 0.14817,-0.582083 0.254,-1.0795 h 1.016 q -0.41275,1.61925 -0.87841,3.01625 -0.46567,1.397 -0.9525,2.487083 z" />
      <path
         id="path7403"
         style="font-style:normal;font-variant:normal;font-weight:normal;font-stretch:normal;font-family:Ubuntu;-inkscape-font-specification:Ubuntu;stroke-width:0.26458332"
         d="m 153.11272,78.714213 q 0,0.28575 -0.1905,0.497417 -0.1905,0.211667 -0.51858,0.211667 -0.32809,0 -0.51859,-0.211667 -0.1905,-0.211667 -0.1905,-0.497417 0,-0.28575 0.1905,-0.497416 0.1905,-0.211667 0.51859,-0.211667 0.32808,0 0.51858,0.211667 0.1905,0.211666 0.1905,0.497416 z" />
    </g>
  </g>
</svg>
